<svg width="694" height="412" viewBox="0 0 694 412" fill="none" xmlns="http://www.w3.org/2000/svg">
<path d="M685.303 73.5649L364.194 0.281695C356.863 -1.39138 350.053 4.62281 350.807 12.1044L390.057 401.626C391.017 411.148 402.839 414.985 409.206 407.84L691.065 91.6015C696.632 85.3552 693.46 75.4266 685.303 73.5649Z" fill="#A684FF"/>
<path d="M362.506 119.233L205.615 168.878C201.022 170.332 199.281 175.915 202.233 179.722L315.054 325.171C318.64 329.794 325.989 328.16 327.278 322.453L371.348 127.36C372.526 122.146 367.602 117.621 362.506 119.233Z" fill="#A684FF"/>
<path d="M208.701 251.164L115.797 263.075C111.461 263.631 108.719 268.017 110.118 272.158L136.94 351.531C138.741 356.86 145.809 357.931 149.107 353.374L215.19 262.091C218.746 257.179 214.716 250.393 208.701 251.164Z" fill="#A684FF"/>
<path d="M43.9103 240.08L2.23602 266.991C-0.775803 268.935 -0.737962 273.353 2.30673 275.246L60.217 311.25C63.9615 313.578 68.6311 310.148 67.5293 305.879L51.2934 242.965C50.4604 239.737 46.711 238.272 43.9103 240.08Z" fill="#A684FF"/>
</svg>
