<svg width="1440" height="771" viewBox="0 0 1440 771" fill="none" xmlns="http://www.w3.org/2000/svg">
<ellipse cx="306.499" cy="306.028" rx="82.8967" ry="130.049" transform="rotate(-7.6918 306.499 306.028)" fill="#A684FF"/>
<ellipse cx="1125.62" cy="203.235" rx="106.658" ry="163.321" transform="rotate(12.0064 1125.62 203.235)" fill="#A684FF"/>
<ellipse cx="463.098" cy="229.436" rx="45.7329" ry="92.8871" transform="rotate(15.0986 463.098 229.436)" fill="#A684FF"/>
<ellipse cx="934.596" cy="228.194" rx="39.7362" ry="70.4485" transform="rotate(7.52845 934.596 228.194)" fill="#A684FF"/>
<ellipse cx="594.099" cy="215.492" rx="27.6184" ry="80.2847" transform="rotate(28.193 594.099 215.492)" fill="#A684FF"/>
<ellipse cx="802.965" cy="232.857" rx="28.2383" ry="62.8215" transform="rotate(26.4104 802.965 232.857)" fill="#A684FF"/>
<ellipse cx="692.52" cy="223.464" rx="21.2086" ry="74.0493" transform="rotate(43.0452 692.52 223.464)" fill="#A684FF"/>
<ellipse cx="1531.95" cy="404.895" rx="319.541" ry="366.767" transform="rotate(9.11254 1531.95 404.895)" fill="#A684FF"/>
<ellipse cx="15.5807" cy="253.831" rx="169.352" ry="260.977" transform="rotate(-18.1545 15.5807 253.831)" fill="#A684FF"/>
</svg>
