<svg width="22" height="23" viewBox="0 0 22 23" fill="none" xmlns="http://www.w3.org/2000/svg">
<path d="M3.40986 11.4996C8.13431 9.39797 11.2847 8.01244 12.861 7.34303C17.3616 5.4317 18.2968 5.09969 18.9064 5.08861C19.0404 5.08631 19.3402 5.12024 19.5344 5.2811C19.6983 5.41694 19.7434 5.60043 19.765 5.72921C19.7866 5.858 19.8135 6.15138 19.7921 6.38061C19.5482 8.99707 18.4929 15.3465 17.956 18.277C17.7289 19.517 17.2815 19.9327 16.8485 19.9734C15.9074 20.0619 15.1927 19.3384 14.2812 18.7283C12.8548 17.7737 12.049 17.1794 10.6645 16.2478C9.06442 15.1712 10.1017 14.5795 11.0135 13.6125C11.2522 13.3595 15.3988 9.5085 15.4791 9.15915C15.4891 9.11546 15.4984 8.9526 15.4037 8.86661C15.3089 8.78061 15.1691 8.81002 15.0681 8.83341C14.9251 8.86656 12.6464 10.4043 8.23223 13.4466C7.58545 13.9001 6.99961 14.1211 6.47473 14.1095C5.89608 14.0967 4.78299 13.7754 3.95553 13.5008C2.94061 13.164 2.13397 12.9859 2.20421 12.4138C2.2408 12.1158 2.64268 11.8111 3.40986 11.4996Z" fill="white"/>
</svg>
