<svg width="22" height="23" viewBox="0 0 22 23" fill="none" xmlns="http://www.w3.org/2000/svg">
<g clip-path="url(#clip0_207_2785)">
<path d="M18.1878 8.02366C18.1878 8.18863 18.1878 8.3536 18.1878 8.495C18.1878 13.3734 14.4642 19.006 7.67679 19.006C5.5793 19.006 3.64678 18.3933 1.99707 17.3563C2.27988 17.3799 2.58625 17.4034 2.86906 17.4034C4.58947 17.4034 6.19205 16.8143 7.46468 15.8244C5.83854 15.8009 4.47164 14.7168 4.02386 13.2556C4.25953 13.3027 4.47164 13.3263 4.73088 13.3263C5.06082 13.3263 5.39076 13.2792 5.69714 13.1849C4.00029 12.855 2.72766 11.3702 2.72766 9.5791C2.72766 9.55553 2.72766 9.55553 2.72766 9.53197C3.22257 9.81477 3.78819 9.97974 4.40093 10.0033C3.41111 9.34343 2.75122 8.2122 2.75122 6.916C2.75122 6.23254 2.93976 5.59623 3.24614 5.05418C5.06082 7.29307 7.79463 8.75424 10.8584 8.91922C10.7877 8.65998 10.7641 8.3536 10.7641 8.07079C10.7641 6.02044 12.4138 4.37073 14.4642 4.37073C15.5247 4.37073 16.491 4.81851 17.1508 5.52553C17.9993 5.36055 18.777 5.05418 19.5076 4.62997C19.2248 5.50196 18.6356 6.20898 17.8814 6.68032C18.6356 6.58605 19.3426 6.39752 20.0025 6.09114C19.5311 6.84529 18.9184 7.50518 18.1878 8.02366Z" fill="white"/>
</g>
<defs>
<clipPath id="clip0_207_2785">
<rect width="22" height="22" fill="white" transform="translate(0 0.688477)"/>
</clipPath>
</defs>
</svg>
