<svg width="94" height="28" viewBox="0 0 94 28" fill="none" xmlns="http://www.w3.org/2000/svg">
<path d="M27.3728 0H0.623467C0.455467 0 0.298667 0.0672 0.182933 0.182933C0.0672 0.298667 0 0.4592 0 0.623467V27.3765C0 27.5408 0.0672 27.7013 0.182933 27.8171C0.298667 27.9328 0.4592 28 0.623467 28H27.3765C27.5408 28 27.7013 27.9328 27.8171 27.8171C27.9328 27.7013 28 27.5408 28 27.3765V0.623467C28 0.4592 27.9328 0.298667 27.8171 0.182933C27.6976 0.0672 27.5408 0 27.3728 0ZM18.6629 18.0432C18.6629 18.2075 18.5957 18.368 18.48 18.4837C18.3643 18.5995 18.2037 18.6667 18.0395 18.6667H9.95307C9.7888 18.6667 9.62827 18.5995 9.51253 18.4837C9.3968 18.368 9.3296 18.2075 9.3296 18.0432V9.9568C9.3296 9.79253 9.3968 9.632 9.51253 9.51627C9.62827 9.40053 9.7888 9.33333 9.95307 9.33333H18.0395C18.2037 9.33333 18.3643 9.40053 18.48 9.51627C18.5957 9.632 18.6629 9.79253 18.6629 9.9568V18.0432Z" fill="white"/>
<path d="M83.3839 9.33337H75.2975C74.9541 9.33337 74.6741 9.61337 74.6741 9.95684V18.0432C74.6741 18.3867 74.9541 18.6667 75.2975 18.6667H83.3839C83.7274 18.6667 84.0074 18.3867 84.0074 18.0432V9.95684C84.0037 9.61337 83.7274 9.33337 83.3839 9.33337Z" fill="white"/>
<path d="M74.0468 0.00372314H65.9604C65.6169 0.00372314 65.3369 0.283723 65.3369 0.62719V8.71359C65.3369 9.05706 65.6169 9.33706 65.9604 9.33706H74.0468C74.3902 9.33706 74.6702 9.05706 74.6702 8.71359V0.623456C74.6702 0.27999 74.3902 0.00372314 74.0468 0.00372314Z" fill="white"/>
<path d="M92.7099 0.00372314H84.6235C84.28 0.00372314 84 0.283723 84 0.62719V8.71359C84 9.05706 84.28 9.33706 84.6235 9.33706H92.7099C93.0533 9.33706 93.3333 9.05706 93.3333 8.71359V0.623456C93.3333 0.27999 93.0533 0.00372314 92.7099 0.00372314Z" fill="white"/>
<path d="M74.0468 18.6666H65.9604C65.6169 18.6666 65.3369 18.9466 65.3369 19.2901V27.3765C65.3369 27.72 65.6169 28 65.9604 28H74.0468C74.3902 28 74.6702 27.72 74.6702 27.3765V19.2901C74.6702 18.9429 74.3902 18.6666 74.0468 18.6666Z" fill="white"/>
<path d="M92.7099 18.6666H84.6235C84.28 18.6666 84 18.9466 84 19.2901V27.3765C84 27.72 84.28 28 84.6235 28H92.7099C93.0533 28 93.3333 27.72 93.3333 27.3765V19.2901C93.3333 18.9429 93.0533 18.6666 92.7099 18.6666Z" fill="white"/>
<path d="M60.0355 0.00372314H51.9491C51.6057 0.00372314 51.3257 0.283723 51.3257 0.62719V8.71359C51.3257 9.05706 51.6057 9.33706 51.9491 9.33706H60.0355C60.379 9.33706 60.659 9.05706 60.659 8.71359V0.623456C60.659 0.27999 60.379 0.00372314 60.0355 0.00372314Z" fill="white"/>
<path d="M60.0355 18.6666H51.9491C51.6057 18.6666 51.3257 18.9466 51.3257 19.2901V27.3765C51.3257 27.72 51.6057 28 51.9491 28H60.0355C60.379 28 60.659 27.72 60.659 27.3765V19.2901C60.659 18.9429 60.379 18.6666 60.0355 18.6666Z" fill="white"/>
<path d="M51.326 9.94933C51.326 9.78507 51.2588 9.62453 51.1431 9.5088C51.0274 9.39307 50.8668 9.32587 50.7026 9.32587H41.9927V0.623467C41.9927 0.4592 41.9255 0.298667 41.8098 0.182933C41.694 0.0672 41.5335 0 41.3692 0H33.2866C33.1223 0 32.9618 0.0672 32.846 0.182933C32.7303 0.298667 32.6631 0.4592 32.6631 0.623467V27.3616C32.6631 27.5259 32.7303 27.6864 32.846 27.8021C32.9618 27.9179 33.1223 27.9851 33.2866 27.9851H41.3729C41.5372 27.9851 41.6978 27.9179 41.8135 27.8021C41.9292 27.6864 41.9964 27.5259 41.9964 27.3616V18.6592H50.7063C50.8706 18.6592 51.0311 18.592 51.1468 18.4763C51.2626 18.3605 51.3298 18.2 51.3298 18.0357L51.326 9.94933Z" fill="white"/>
</svg>
