<svg width="55" height="52" viewBox="0 0 55 52" fill="none" xmlns="http://www.w3.org/2000/svg">
<path fill-rule="evenodd" clip-rule="evenodd" d="M13.4477 38.1794C25.8501 50.5818 41.3503 55.1899 48.0683 48.472C52.8968 43.6435 51.8743 34.2782 46.3122 24.7871C47.7737 23.6876 49.4075 22.7975 51.1726 22.1619L53.333 21.384C54.2663 21.0479 54.2663 19.728 53.333 19.392L51.1726 18.614C45.403 16.5366 41.0352 11.7386 39.5073 5.7998L38.6683 2.53892C38.3956 1.47913 36.8905 1.47913 36.6179 2.53892L36.1464 4.37119C35.6165 6.4311 34.7472 8.34737 33.6016 10.0588C22.0809 0.574856 9.13675 -2.42288 3.15509 3.55878C-3.56289 10.2768 1.04526 25.7769 13.4477 38.1794ZM33.6016 10.0588C31.016 13.9212 27.0227 16.7403 22.3438 17.8127L15.61 19.3561C14.5138 19.6074 14.5138 21.1686 15.61 21.4198L22.3439 22.9633C29.0959 24.5109 34.4204 29.6961 36.1464 36.4048L36.6179 38.237C36.8905 39.2968 38.3956 39.2968 38.6683 38.237L39.5073 34.9762C40.5678 30.8541 42.9964 27.2817 46.3122 24.7871C44.1357 21.073 41.264 17.3397 37.7757 13.8514C36.4163 12.492 35.0197 11.2263 33.6016 10.0588Z" fill="white"/>
</svg>
