<svg width="56" height="56" viewBox="0 0 56 56" fill="none" xmlns="http://www.w3.org/2000/svg">
<path d="M28 56C43.464 56 56 43.464 56 28C56 12.536 43.464 0 28 0C12.536 0 0 12.536 0 28C0 43.464 12.536 56 28 56Z" fill="white"/>
<path fill-rule="evenodd" clip-rule="evenodd" d="M20.2049 18.5085H35.9093C36.4649 18.5085 37.0201 18.5901 37.6003 18.8606C38.2958 19.1847 38.6646 19.6958 38.923 20.0737C38.9431 20.1031 38.9619 20.1334 38.9793 20.1644C39.2831 20.7052 39.4397 21.2891 39.4397 21.9172C39.4397 22.514 39.2977 23.1642 38.9793 23.7309C38.9763 23.7363 38.9732 23.7417 38.9701 23.7471L29.0483 40.7906C28.8295 41.1664 28.4268 41.397 27.9919 41.3955C27.557 41.3939 27.1559 41.1605 26.9398 40.7831L17.2002 23.7759C17.1974 23.7714 17.1946 23.7667 17.1918 23.7621C16.9689 23.3948 16.6242 22.8268 16.5639 22.0937C16.5085 21.4197 16.66 20.7443 16.9987 20.1587C17.3374 19.573 17.8473 19.1048 18.4606 18.8182C19.1182 18.5109 19.7846 18.5085 20.2049 18.5085ZM26.7788 20.9433H20.2049C19.773 20.9433 19.6072 20.9699 19.4913 21.0241C19.331 21.0989 19.1964 21.2219 19.1064 21.3776C19.0164 21.5333 18.9757 21.7137 18.9905 21.8942C18.999 21.9978 19.0412 22.1162 19.2901 22.5267C19.2953 22.5353 19.3004 22.544 19.3054 22.5527L26.7788 35.6026V20.9433ZM29.2136 20.9433V35.6671L36.8601 22.532C36.9464 22.3752 37.0049 22.1486 37.0049 21.9172C37.0049 21.7295 36.966 21.5665 36.879 21.3984C36.7877 21.2672 36.7321 21.1977 36.6856 21.1501C36.6457 21.1094 36.615 21.0876 36.5716 21.0674C36.3908 20.9831 36.2058 20.9433 35.9093 20.9433H29.2136Z" fill="#1B2025"/>
</svg>
