<svg width="238" height="52" viewBox="0 0 238 52" fill="none" xmlns="http://www.w3.org/2000/svg">
<path fill-rule="evenodd" clip-rule="evenodd" d="M24.5131 3.17621L25.0049 3.32439L38.2803 7.32439C39.2057 7.60322 39.7299 8.57944 39.451 9.50485C39.1722 10.4302 38.196 10.9544 37.2706 10.6756L24.4869 6.82374L10.9808 10.6826C10.0515 10.9482 9.08285 10.41 8.81733 9.48074C8.55182 8.55143 9.08993 7.58283 10.0192 7.31731L24.0192 3.31731L24.5131 3.17621ZM44.7133 10.6431L43 11C44.7133 10.6431 44.7134 10.6437 44.7135 10.6443L44.7138 10.6458L44.7146 10.6497L44.7169 10.6607L44.7239 10.6959C44.7297 10.7251 44.7375 10.7657 44.7472 10.8174C44.7664 10.9208 44.7927 11.0685 44.8232 11.2572C44.8844 11.6346 44.9628 12.1768 45.0367 12.8582C45.1844 14.2198 45.3145 16.1444 45.2493 18.425C45.1194 22.9726 44.2103 29.019 41.0364 34.838C37.8923 40.6022 33.8323 44.5305 30.559 47.0183C28.9213 48.2629 27.4749 49.1513 26.4281 49.7329C25.9043 50.0238 25.4797 50.2385 25.1798 50.383C25.0299 50.4553 24.9111 50.5101 24.8266 50.5481C24.7843 50.5672 24.7507 50.582 24.726 50.5927L24.6957 50.6058L24.6857 50.6101L24.682 50.6116L24.6805 50.6123C24.6798 50.6126 24.6792 50.6128 24.0001 49C23.2893 50.5991 23.2887 50.5989 23.288 50.5986L23.2865 50.5979L23.2828 50.5963L23.273 50.5919L23.2437 50.5785C23.2199 50.5676 23.1876 50.5525 23.1471 50.5333C23.0662 50.4949 22.9527 50.4398 22.8096 50.3671C22.5233 50.2218 22.1183 50.0064 21.6183 49.7147C20.6187 49.1316 19.2365 48.2421 17.6638 46.9971C14.5192 44.5076 10.5983 40.5848 7.46373 34.838C4.28977 29.019 3.3807 22.9726 3.25076 18.425C3.1856 16.1444 3.31573 14.2198 3.46337 12.8582C3.53726 12.1768 3.61573 11.6346 3.67687 11.2572C3.70745 11.0685 3.73371 10.9208 3.75294 10.8174C3.76255 10.7657 3.77041 10.7251 3.77617 10.6959L3.7832 10.6608L3.78546 10.6497L3.78626 10.6458L3.78657 10.6443C3.78671 10.6437 3.78683 10.6431 5.50005 11L3.78683 10.6431C3.93948 9.91035 4.54118 9.35582 5.28389 9.26338C6.0266 9.17093 6.74588 9.56103 7.07349 10.234L14.6273 25.75H33.6685L41.4348 10.2174C41.768 9.55097 42.4866 9.16861 43.2254 9.26455C43.9642 9.36048 44.5613 9.91368 44.7133 10.6431ZM31.9185 29.25H16.3313L24.021 45.045L31.9185 29.25ZM24.0001 49L24.6792 50.6128C24.2338 50.8003 23.7308 50.7954 23.2893 50.5991L24.0001 49ZM6.73481 17.5342C6.73692 17.792 6.74164 18.0558 6.74934 18.325C6.8694 22.5273 7.71033 27.9809 10.5364 33.162C13.3508 38.3218 16.8538 41.8646 19.6833 44.1311L6.73481 17.5342ZM28.2798 44.3536C28.3334 44.3134 28.3871 44.2728 28.4412 44.2317C31.4178 41.9694 35.1078 38.3978 37.9637 33.162C40.7898 27.9809 41.6307 22.5273 41.7508 18.325C41.76 18.0021 41.7649 17.6871 41.7662 17.3807L28.2798 44.3536Z" fill="#C6FEFB"/>
<path d="M60.8 44C60.16 44 59.576 43.848 59.048 43.544C58.536 43.224 58.12 42.808 57.8 42.296C57.496 41.768 57.344 41.184 57.344 40.544V30.176C57.344 29.536 57.496 28.96 57.8 28.448C58.12 27.92 58.536 27.504 59.048 27.2C59.576 26.88 60.16 26.72 60.8 26.72H74.576V30.2H61.616C61.36 30.2 61.16 30.272 61.016 30.416C60.872 30.544 60.8 30.744 60.8 31.016V39.704C60.8 39.96 60.872 40.16 61.016 40.304C61.16 40.448 61.36 40.52 61.616 40.52H74.576V44H60.8ZM84.3264 44V26.72H100.262V30.2H87.8304V33.608H97.8384V37.112H87.8304V40.52H100.262V44H84.3264ZM123.437 44L118.325 37.904H122.861L127.085 42.92V44H123.437ZM109.853 44V26.744H123.653C124.293 26.744 124.869 26.904 125.381 27.224C125.909 27.528 126.333 27.944 126.653 28.472C126.973 29 127.133 29.576 127.133 30.2V34.76C127.133 35.384 126.973 35.96 126.653 36.488C126.333 37 125.909 37.416 125.381 37.736C124.869 38.04 124.293 38.192 123.653 38.192L113.309 38.216V44H109.853ZM113.453 34.712H123.485C123.533 34.712 123.565 34.704 123.581 34.688C123.613 34.656 123.629 34.624 123.629 34.592V30.344C123.629 30.296 123.613 30.264 123.581 30.248C123.565 30.216 123.533 30.2 123.485 30.2H113.453C113.405 30.2 113.365 30.216 113.333 30.248C113.317 30.264 113.309 30.296 113.309 30.344V34.592C113.309 34.624 113.317 34.656 113.333 34.688C113.365 34.704 113.405 34.712 113.453 34.712ZM142.906 44V30.2H135.994V26.72H153.274V30.2H146.386V44H142.906ZM161.789 44V26.72H165.221V44H161.789ZM174.837 44V26.72H178.317V33.608H182.037L187.797 26.72H191.493V27.824L185.157 35.36L191.493 42.896V44H187.797L182.037 37.112H178.317V44H174.837Z" fill="#C6FEFB"/>
<path d="M57.696 19V12.028C57.696 11.724 57.772 11.448 57.924 11.2C58.076 10.944 58.276 10.74 58.524 10.588C58.78 10.436 59.06 10.36 59.364 10.36H64.656C64.96 10.36 65.24 10.436 65.496 10.588C65.752 10.74 65.956 10.944 66.108 11.2C66.26 11.448 66.336 11.724 66.336 12.028V19H64.74V16.096H59.28V19H57.696ZM59.28 14.512H64.74V12.1C64.74 12.06 64.724 12.028 64.692 12.004C64.66 11.972 64.624 11.956 64.584 11.956H59.424C59.384 11.956 59.348 11.972 59.316 12.004C59.292 12.028 59.28 12.06 59.28 12.1V14.512ZM70.7873 19C70.4833 19 70.2033 18.924 69.9473 18.772C69.6993 18.62 69.4993 18.42 69.3473 18.172C69.1953 17.916 69.1193 17.636 69.1193 17.332V10.36H70.7033V17.26C70.7033 17.3 70.7153 17.336 70.7393 17.368C70.7713 17.392 70.8073 17.404 70.8473 17.404H76.0073C76.0473 17.404 76.0833 17.392 76.1153 17.368C76.1473 17.336 76.1633 17.3 76.1633 17.26V10.36H77.7593V17.332C77.7593 17.636 77.6833 17.916 77.5313 18.172C77.3793 18.42 77.1753 18.62 76.9193 18.772C76.6713 18.924 76.3953 19 76.0913 19H70.7873ZM80.5448 19V10.36H87.5048C87.8088 10.36 88.0888 10.436 88.3448 10.588C88.6008 10.74 88.8048 10.944 88.9568 11.2C89.1088 11.448 89.1848 11.724 89.1848 12.028V17.332C89.1848 17.636 89.1088 17.916 88.9568 18.172C88.8048 18.42 88.6008 18.62 88.3448 18.772C88.0888 18.924 87.8088 19 87.5048 19H80.5448ZM82.2608 17.404H87.4328C87.4728 17.404 87.5088 17.392 87.5408 17.368C87.5728 17.336 87.5888 17.3 87.5888 17.26V12.1C87.5888 12.06 87.5728 12.028 87.5408 12.004C87.5088 11.972 87.4728 11.956 87.4328 11.956H82.2608C82.2208 11.956 82.1848 11.972 82.1528 12.004C82.1288 12.028 82.1168 12.06 82.1168 12.1V17.26C82.1168 17.3 82.1288 17.336 82.1528 17.368C82.1848 17.392 82.2208 17.404 82.2608 17.404ZM91.8006 19V10.36H93.3726V19H91.8006ZM99.235 19V11.956H95.707V10.36H104.347V11.956H100.831V19H99.235ZM106.709 19V10.36H114.665V11.956H108.305V13.876H113.417V15.484H108.305V17.404H114.665V19H106.709ZM117.336 19V10.36H124.296C124.6 10.36 124.88 10.436 125.136 10.588C125.392 10.74 125.596 10.944 125.748 11.2C125.9 11.448 125.976 11.724 125.976 12.028V17.332C125.976 17.636 125.9 17.916 125.748 18.172C125.596 18.42 125.392 18.62 125.136 18.772C124.88 18.924 124.6 19 124.296 19H117.336ZM119.052 17.404H124.224C124.264 17.404 124.3 17.392 124.332 17.368C124.364 17.336 124.38 17.3 124.38 17.26V12.1C124.38 12.06 124.364 12.028 124.332 12.004C124.3 11.972 124.264 11.956 124.224 11.956H119.052C119.012 11.956 118.976 11.972 118.944 12.004C118.92 12.028 118.908 12.06 118.908 12.1V17.26C118.908 17.3 118.92 17.336 118.944 17.368C118.976 17.392 119.012 17.404 119.052 17.404ZM133.904 19V10.36H140.528C140.832 10.36 141.108 10.436 141.356 10.588C141.612 10.74 141.816 10.944 141.968 11.2C142.12 11.448 142.196 11.724 142.196 12.028V13.72C142.196 13.824 142.188 13.924 142.172 14.02C142.156 14.116 142.128 14.208 142.088 14.296C142.224 14.48 142.332 14.672 142.412 14.872C142.5 15.072 142.544 15.272 142.544 15.472V17.332C142.544 17.636 142.468 17.916 142.316 18.172C142.164 18.42 141.96 18.62 141.704 18.772C141.448 18.924 141.168 19 140.864 19H133.904ZM135.632 17.404H140.792C140.832 17.404 140.868 17.392 140.9 17.368C140.932 17.336 140.948 17.3 140.948 17.26V15.544C140.948 15.504 140.932 15.472 140.9 15.448C140.868 15.416 140.832 15.4 140.792 15.4H135.632C135.592 15.4 135.556 15.416 135.524 15.448C135.5 15.472 135.488 15.504 135.488 15.544V17.26C135.488 17.3 135.5 17.336 135.524 17.368C135.556 17.392 135.592 17.404 135.632 17.404ZM135.632 13.804H140.456C140.496 13.804 140.528 13.792 140.552 13.768C140.576 13.736 140.588 13.7 140.588 13.66V12.1C140.588 12.06 140.576 12.028 140.552 12.004C140.528 11.972 140.496 11.956 140.456 11.956H135.632C135.592 11.956 135.556 11.972 135.524 12.004C135.5 12.028 135.488 12.06 135.488 12.1V13.66C135.488 13.7 135.5 13.736 135.524 13.768C135.556 13.792 135.592 13.804 135.632 13.804ZM148.195 19V15.76L144.211 10.36H146.083L148.999 14.02L151.879 10.36H153.787L149.791 15.772V19H148.195Z" fill="#C6FEFB"/>
</svg>
