<svg width="64" height="64" viewBox="0 0 64 64" fill="none" xmlns="http://www.w3.org/2000/svg">
<path d="M32 58C46.3594 58 58 46.3594 58 32C58 17.6406 46.3594 6 32 6C17.6406 6 6 17.6406 6 32C6 46.3594 17.6406 58 32 58Z" stroke="#C6FEFB" stroke-width="4" stroke-linecap="round" stroke-linejoin="round"/>
<path d="M31.6668 22V47.3336L19.3027 26.169C19.0893 25.7423 18.9859 25.2704 19.0015 24.7949C19.0172 24.3194 19.1513 23.855 19.3923 23.4429C19.6333 23.0307 19.9737 22.6834 20.3832 22.4317C20.7927 22.18 21.2587 22.0318 21.7402 22H31.6668Z" stroke="#C6FEFB" stroke-width="3.50773" stroke-linecap="round" stroke-linejoin="round"/>
<path d="M31.6685 47.3336L44.0322 26.169C44.2456 25.7423 44.3493 25.2704 44.3337 24.7949C44.3181 24.3194 44.1836 23.855 43.9426 23.4429C43.7016 23.0307 43.3616 22.6834 42.9521 22.4317C42.5426 22.18 42.0763 22.0318 41.5948 22H31.6685V47.3336Z" stroke="#C6FEFB" stroke-width="3.50773" stroke-linecap="round" stroke-linejoin="round"/>
</svg>
