<svg width="64" height="64" viewBox="0 0 64 64" fill="none" xmlns="http://www.w3.org/2000/svg">
<path d="M31.9685 50.6667L42.0112 25.6338C42.4087 24.6428 42.1768 23.5103 41.4218 22.7553L33.8855 15.219C32.8441 14.1776 31.1557 14.1776 30.1143 15.219L22.578 22.7553C21.823 23.5103 21.5911 24.6428 21.9887 25.6338L32.0314 50.6667" stroke="#C6FEFB" stroke-width="4" stroke-linecap="round" stroke-linejoin="round"/>
<path d="M10.6667 24L53.3334 24" stroke="#C6FEFB" stroke-width="4" stroke-linecap="round" stroke-linejoin="round"/>
<path d="M32.045 50.6667L54.2338 25.9661C55.2118 24.8774 55.1296 23.204 54.0497 22.2163L45.1014 14.0322C44.6099 13.5827 43.9679 13.3333 43.3017 13.3333H32.015H31.985H20.6983C20.0321 13.3333 19.3901 13.5827 18.8986 14.0322L9.95026 22.2163C8.87035 23.204 8.78821 24.8774 9.7662 25.9661L31.955 50.6667" stroke="#C6FEFB" stroke-width="4" stroke-linecap="round" stroke-linejoin="round"/>
</svg>
